# Blender v2.78 (sub 0) OBJ File: 'cube3.blend'
# www.blender.org
mtllib cube.mtl
o Cube.001
v 0.999999 1.000000 1.000001
v -1.000000 -1.000000 1.000000
v 1.000000 -1.000000 1.000000
v 1.000000 -1.000000 -1.000000
v -1.000000 1.000000 -1.000000
v 1.000000 1.000000 -0.999999
v -1.000000 1.000000 1.000000
v -1.000000 -1.000000 -1.000000
vt 0.0000 1.0000
vt 0.0000 1.0000
vt 0.0000 1.0000
vt 0.1730 0.0325
vt 0.2062 0.0307
vt 0.2094 0.1205
vt 0.0000 1.0000
vt 0.2052 0.1278
vt 0.2104 0.0235
vt 0.1667 0.0380
vt 1.0000 1.0000
vt 0.0000 0.0000
vt 1.0000 0.0000
vt 1.0000 0.0000
vt 0.0000 0.0000
vt 1.0000 0.0000
vt 0.0000 0.0000
vt 0.1945 0.8406
vt 0.2843 0.4669
vt 0.2050 0.4692
vt 1.0000 1.0000
vt 1.0000 1.0000
vn -0.0000 -0.0000 1.0000
vn 0.0000 0.0000 -1.0000
vn 0.0000 -1.0000 -0.0000
vn -0.0000 1.0000 0.0000
vn 1.0000 0.0000 0.0000
vn -1.0000 0.0000 0.0000
usemtl Material.001
s 1
f 1/1/1 2/2/1 3/3/1
f 4/4/2 5/5/2 6/6/2
f 1/1/1 7/7/1 2/2/1
f 4/8/2 8/9/2 5/10/2
usemtl Material_NONE
f 3/11/3 8/12/3 4/13/3
f 5/14/4 1/1/4 6/15/4
f 6/16/5 3/3/5 4/17/5
f 2/18/6 5/19/6 8/20/6
f 3/11/3 2/2/3 8/12/3
f 5/14/4 7/21/4 1/1/4
f 6/16/5 1/22/5 3/3/5
f 2/2/6 7/21/6 5/14/6
