# Blender v2.78 (sub 0) OBJ File: 'tree.blend'
# www.blender.org
mtllib tree.mtl
o Plane.000_Plane.002
v -0.000000 0.000000 0.500000
v -0.000000 0.000000 -0.500000
v 0.000000 4.000000 0.500000
v 0.000000 4.000000 -0.500000
vt 0.9999 0.0001
vt 0.4679 0.9999
vt 0.4679 0.0001
vt 0.9999 0.9999
vn 1.0000 -0.0000 -0.0000
usemtl Bark
s off
f 2/1/1 3/2/1 1/3/1
f 2/1/1 4/4/1 3/2/1
o Plane.003_Plane.006
v -1.767767 3.000000 1.767767
v 1.767767 3.000000 -1.767767
v -1.767767 8.000000 1.767767
v 1.767767 8.000000 -1.767767
vt 0.4677 0.1211
vt 0.0001 0.9999
vt 0.0001 0.1211
vt 0.4677 0.9999
vn 0.7071 -0.0000 0.7071
usemtl Leaf.004
s off
f 6/5/2 7/6/2 5/7/2
f 6/5/2 8/8/2 7/6/2
o Plane.002_Plane.007
v 3.535534 5.500000 0.000000
v 0.000000 5.500000 -3.535534
v 0.000000 5.500000 3.535534
v -3.535534 5.500000 0.000000
vt 0.4677 0.1211
vt 0.0001 0.9999
vt 0.0001 0.1211
vt 0.4677 0.9999
vn 0.0000 1.0000 0.0000
usemtl Leaf.005
s off
f 10/9/3 11/10/3 9/11/3
f 10/9/3 12/12/3 11/10/3
o Plane.004_Plane.008
v 1.767767 3.000000 1.767767
v -1.767767 3.000000 -1.767767
v 1.767767 8.000000 1.767767
v -1.767767 8.000000 -1.767767
vt 0.4677 0.1211
vt 0.0001 0.9999
vt 0.0001 0.1211
vt 0.4677 0.9999
vn 0.7071 -0.0000 -0.7071
usemtl Leaf.006
s off
f 14/13/4 15/14/4 13/15/4
f 14/13/4 16/16/4 15/14/4
o Plane.001_Plane.009
v -0.500000 0.000000 -0.000000
v 0.500000 0.000000 -0.000000
v -0.500000 4.000000 0.000000
v 0.500000 4.000000 0.000000
vt 0.9999 0.0001
vt 0.4679 0.9999
vt 0.4679 0.0001
vt 0.9999 0.9999
vn 0.0000 -0.0000 1.0000
usemtl Bark.001
s off
f 18/17/5 19/18/5 17/19/5
f 18/17/5 20/20/5 19/18/5
